{"title":"Elysium 2013 WEBRip 480p x264 AAC - VYTO [P2PDL]","uid":9182836,"size":374898162,"categoryP":"video","categoryS":"movies","magnet":"?xt=urn:btih:86783942136dafefc0a3df1cb00ab75b18399f28&amp;dn=Elysium+2013+WEBRip+480p+x264+AAC+-+VYTO+%5BP2PDL%5D&amp;tr=udp%3A%2F%2Ftracker.openbittorrent.com%3A80&amp;tr=udp%3A%2F%2Fopen.demonii.com%3A1337&amp;tr=udp%3A%2F%2Ftracker.coppersurfer.tk%3A6969&amp;tr=udp%3A%2F%2Fexodus.desync.com%3A6969","seeders":1,"leechers":0,"uploader":"Vitamin_X","files":-1,"time":1384252663,"description":"_______ Visit us at our Semi Public Bittorrent Community ________\n  &lt;a href=&quot;\nhttp://p2pdl.com&quot; rel=&quot;nofollow&quot; target=&quot;_NEW&quot;&gt;\nhttp://p2pdl.com&lt;/a&gt;  _____________________________ &lt;a href=&quot; http://p2pdl.com&quot; rel=&quot;nofollow&quot; target=&quot;_NEW&quot;&gt; http://p2pdl.com&lt;/a&gt;\n\n\nElysium 2013 WEBRip 480p x264 AAC - VYTO\n\nGenre: Action | Drama | Sci-Fi\nPlot: In the year 2154, the very wealthy live \non a man-made space station while the rest of \nthe population resides on a ruined Earth. \nA man takes on a mission that could bring \nequality to the polarized worlds.\nDirector: Neill Blomkamp\nStars: Matt Damon, Jodie Foster, Sharlto Copley\nRated: Rated R for strong bloody violence and language throughout\n\nIMDb: &lt;a href=&quot;\nhttp://www.imdb.com/title/tt1535108/&quot; rel=&quot;nofollow&quot; target=&quot;_NEW&quot;&gt;\nhttp://www.imdb.com/title/tt1535108/&lt;/a&gt;\n\n\nGeneral\nFormat                         : MPEG-4\nFile size                      : 354 MiB\nDuration                       : 1h 49mn\nOverall bit rate mode          : Variable\nOverall bit rate               : 452 Kbps\n\nVideo\nFormat                         : AVC\nBit rate                       : 409 Kbps\nWidth                          : 720 pixels\nHeight                         : 272 pixels\nDisplay aspect ratio           : 2.647\nFrame rate mode                : Constant\nFrame rate                     : 23.976 fps\nBit depth                      : 10 bits\nStream size                    : 320 MiB (90%)\nWriting library                : x264 core 138 r2358 9e941d1\n\nAudio\nFormat                         : AAC\nBit rate                       : 40.0 Kbps\nChannel count                  : 2 channels\nChannel positions              : Front: L R\nSampling rate                  : 48.0 KHz / 24.0 KHz\nStream size                    : 31.3 MiB (9%)\n\nSubtitle                       : Yes (English)\n\nSource                         : 720p.WEB-DL.x264.AC3-VAiN\n\nScreenshots:\n &lt;a href=&quot;\nhttp://ultraimg.com/images/yTJD.png&quot; rel=&quot;nofollow&quot; target=&quot;_NEW&quot;&gt;\nhttp://ultraimg.com/images/yTJD.png&lt;/a&gt; &lt;a href=&quot;\nhttp://ultraimg.com/images/SETp.png&quot; rel=&quot;nofollow&quot; target=&quot;_NEW&quot;&gt;\nhttp://ultraimg.com/images/SETp.png&lt;/a&gt; &lt;a href=&quot;\nhttp://ultraimg.com/images/0dN2b.png&quot; rel=&quot;nofollow&quot; target=&quot;_NEW&quot;&gt;\nhttp://ultraimg.com/images/0dN2b.png&lt;/a&gt; &lt;a href=&quot;\nhttp://ultraimg.com/images/6V9ay.png&quot; rel=&quot;nofollow&quot; target=&quot;_NEW&quot;&gt;\nhttp://ultraimg.com/images/6V9ay.png&lt;/a&gt; &lt;a href=&quot;\nhttp://ultraimg.com/images/lYLEW.png&quot; rel=&quot;nofollow&quot; target=&quot;_NEW&quot;&gt;\nhttp://ultraimg.com/images/lYLEW.png&lt;/a&gt; &lt;a href=&quot;\nhttp://ultraimg.com/images/imXoU.png&quot; rel=&quot;nofollow&quot; target=&quot;_NEW&quot;&gt;\nhttp://ultraimg.com/images/imXoU.png&lt;/a&gt;\n\n----------------------------------------------------------------------------------------------------\n\n\nEncoded using revolutionary 10bit encoding, which enables us to provide you more crispier \nand sharper images at small sizes, just make sure you follow our instructions without a fault.\nRecommend to you to use latest version of VLC player. Install K-Lite Codec Pack or shark007 codecs\nin case of any kind of problem in playback (For non-VLC Media Player users). Alternatively, install\nCore AVC codecs, the fastest decoder that there is coupled with Community Center Codec Pack and play\non Windows Media Player Classic. Check sample to be sure.\nEnjoy!\n\nEncoder Notes:Looking For Early Access To Anything You Can Provide DVDScr, R5, DVDR, BluRay, Direct\nAudio, Music Releases and Seedboxes. We require dedicated servers, so as to do more \nand fast releases of movies.\nIf You Got anything to offer please contact us at &quot;&lt;a class=&quot;__cf_email__&quot; href=&quot;/cdn-cgi/l/email-protection&quot; data-cfemail=&quot;e1919386a189949289cf828e8c&quot;&gt;[email&amp;#160;protected]&lt;/a&gt;&lt;script cf-hash='f9e31' type=&quot;text/javascript&quot;&gt;\n/* &lt;![CDATA[ */!function(){try{var t=&quot;currentScript&quot;in document?document.currentScript:function(){for(var t=document.getElementsByTagName(&quot;script&quot;),e=t.length;e--;)if(t[e].getAttribute(&quot;cf-hash&quot;))return t[e]}();if(t&amp;&amp;t.previousSibling){var e,r,n,i,c=t.previousSibling,a=c.getAttribute(&quot;data-cfemail&quot;);if(a){for(e=&quot;&quot;,r=parseInt(a.substr(0,2),16),n=2;a.length-n;n+=2)i=parseInt(a.substr(n,2),16)^r,e+=String.fromCharCode(i);e=document.createTextNode(e),c.parentNode.replaceChild(e,c)}}}catch(u){}}();/* ]]&gt; */&lt;/script&gt;&quot;.\n\nFacebook Fan Page:  \nSearch P2PDL on FB and don't forget to hit like!!!\n\nSupport us, please consider a donation.\n\nFor more of our team uploads visit @            &lt;a href=&quot;\nhttp://thepiratebay.se/user/varuttee&quot; rel=&quot;nofollow&quot; target=&quot;_NEW&quot;&gt;\nhttp://thepiratebay.se/user/varuttee&lt;/a&gt;\t","torrent":{"xt":"urn:btih:86783942136dafefc0a3df1cb00ab75b18399f28","amp;dn":"Elysium+2013+WEBRip+480p+x264+AAC+-+VYTO+%5BP2PDL%5D","amp;tr":["udp%3A%2F%2Ftracker.openbittorrent.com%3A80","udp%3A%2F%2Fopen.demonii.com%3A1337","udp%3A%2F%2Ftracker.coppersurfer.tk%3A6969","udp%3A%2F%2Fexodus.desync.com%3A6969"],"infoHash":"86783942136dafefc0a3df1cb00ab75b18399f28","infoHashBuffer":{"type":"Buffer","data":[134,120,57,66,19,109,175,239,192,163,223,28,176,10,183,91,24,57,159,40]},"announce":[],"urlList":[]}}